<?xml version="1.0" encoding="UTF-8"?><svg xmlns="http://www.w3.org/2000/svg" viewBox="0 0 388.78 275"><g id="Camada_1" data-bbox="0 0 1099.48 274.79" data-type="color" image-rendering="optimizeQuality" shape-rendering="geometricPrecision" text-rendering="geometricPrecision"><path d="M158.13,95.62h72.54c9.95,0,18.09,8.15,18.09,18.1v47.56c0,9.95-8.14,18.09-18.09,18.09h-72.54c-9.95,0-18.1-8.14-18.1-18.09v-47.56c0-9.95,8.15-18.1,18.1-18.1M55.66,12.63h72.54c9.95,0,18.09,8.14,18.09,18.09v47.57c0,9.95-8.14,18.09-18.09,18.09H55.66c-9.95,0-18.09-8.15-18.09-18.09V30.72c0-9.95,8.15-18.09,18.09-18.09M260.58,12.63h72.54c9.95,0,18.09,8.14,18.09,18.09v47.57c0,9.95-8.15,18.09-18.09,18.09h-72.54c-9.95,0-18.09-8.15-18.09-18.09V30.72c0-9.95,8.15-18.09,18.09-18.09M260.58,178.62h72.54c9.95,0,18.09,8.14,18.09,18.09v47.57c0,9.95-8.15,18.09-18.09,18.09h-72.54c-9.95,0-18.09-8.14-18.09-18.09v-47.57c0-9.95,8.15-18.09,18.09-18.09" data-color="1" style="fill:#b00003; fill-rule:evenodd;"/></g></svg>